<svg width="450" height="310" viewBox="0 0 450 310" fill="none" xmlns="http://www.w3.org/2000/svg">
<path d="M346.364 71.9437C346.364 81.2626 344.924 89.1417 342.047 95.5833C339.17 102.025 335.605 107.848 331.358 113.056C327.109 118.264 322.45 123.059 317.38 127.444C312.31 131.83 307.583 136.625 303.198 141.833C284.428 164.124 279.678 192.396 279.193 221.103H224.157C222.538 192.615 227.259 155.501 243.586 131.555C247.697 125.526 252.15 120.318 256.948 115.933C261.743 111.548 266.199 107.369 270.31 103.394C274.42 99.4197 277.846 95.5153 280.588 91.6766C283.329 87.8402 284.698 83.3168 284.698 78.111C284.698 70.9846 282.299 65.0917 277.504 60.4323C272.708 55.7728 266.199 53.4442 257.977 53.4442C250.851 53.4442 244.616 56.3895 239.271 62.2824C233.927 68.1753 231.254 76.8775 231.254 88.389L171.643 84.2782C173.835 58.5163 182.537 38.0284 197.749 22.8166C212.961 7.60477 233.036 0 257.977 0C271.956 0 284.356 1.9182 295.183 5.75459C306.009 9.59098 315.258 14.7991 322.933 21.3768C330.608 27.9544 336.431 35.5592 340.405 44.1933C344.375 52.8275 346.364 62.0761 346.364 71.9437ZM221.636 272.595C221.636 264.373 224.719 257.179 230.887 251.012C237.054 244.844 244.248 241.761 252.47 241.761C260.691 241.761 267.886 244.844 274.053 251.012C280.22 257.179 283.304 264.373 283.304 272.595C283.304 280.816 280.22 288.011 274.053 294.178C267.886 300.345 260.691 303.429 252.47 303.429C244.248 303.429 237.054 300.345 230.887 294.178C224.719 288.013 221.636 280.819 221.636 272.595Z" fill="#FCC53A"/>
<path fill-rule="evenodd" clip-rule="evenodd" d="M239.269 62.2822C233.925 68.1751 231.252 76.8773 231.252 88.3888L247.568 75.34C247.568 66.6991 249.073 59.6407 252.085 54.165C247.359 55.3667 243.088 58.0717 239.269 62.2822Z" fill="#D4A42A"/>
<path d="M162.731 103.085H153.201V117.85H162.731V103.085Z" fill="#E6A586"/>
<path fill-rule="evenodd" clip-rule="evenodd" d="M163.478 104.542C163.648 103.44 163.208 101.846 163.8 100.243C163.596 98.5421 164.142 96.8619 164.823 96.6239C166.507 96.311 166.668 98.7552 166.521 100.134C166.943 99.2427 167.104 97.9095 167.154 96.642C167.222 94.9868 167.106 93.4427 167.156 93.1434C167.258 92.5335 168.886 91.3704 169.636 89.5746C170.525 87.4455 170.518 84.6612 170.115 84.2259C168.87 83.0151 167.213 85.5047 165.823 85.2711C164.433 85.0376 164.077 81.6139 162.331 81.5798C160.585 81.5458 158.429 84.8766 157.043 84.9764C156.189 85.0376 155.978 83.616 154.62 83.7429C152.556 83.9334 148.541 90.6539 148.43 96.7803C148.348 101.238 150.955 103.918 151.801 105.235C152.647 106.553 152.246 108.237 152.912 108.521C153.579 108.804 154.635 107.269 155.18 107.299C156.386 107.383 156.837 108.677 157.642 108.7C158.449 108.723 158.862 107.432 159.474 107.133C160.086 106.832 163.256 106.587 163.478 104.542Z" fill="#FCC53A"/>
<path fill-rule="evenodd" clip-rule="evenodd" d="M156.122 286.15C154.682 285.549 151.464 285.819 148.551 286.134C148.655 289.335 149.349 293.909 149.814 297.054C150.712 298.419 155.559 297.38 155.788 296.224C155.838 292.866 155.963 289.505 156.122 286.15Z" fill="#E6A586"/>
<path fill-rule="evenodd" clip-rule="evenodd" d="M155.786 296.227C155.427 297.195 150.605 297.707 149.707 296.342C149.689 296.222 149.671 296.077 149.652 295.907C149.337 296.14 148.417 296.68 148.392 297.428C148.365 298.177 147.721 301.559 149.122 302.242C150.523 302.924 158.985 302.584 158.407 297.034C157.702 294.816 156.536 295.202 155.799 295.465C155.795 295.721 155.79 295.975 155.786 296.227Z" fill="#432587"/>
<path fill-rule="evenodd" clip-rule="evenodd" d="M171.402 302.044C172.753 303.395 186.981 302.4 187.276 302.118C187.015 300.001 179.419 296.396 177.24 295.985C177.163 296.881 177.12 297.436 177.12 297.436C176.107 298.123 173.431 298.568 172.066 297.316C172.007 296.928 171.946 296.396 171.887 295.761C170.991 296.083 169.57 300.214 171.402 302.044Z" fill="#432587"/>
<path fill-rule="evenodd" clip-rule="evenodd" d="M172.068 297.318C173.433 298.57 176.109 298.126 177.122 297.439C177.122 297.439 177.165 296.881 177.242 295.987C177.397 294.212 177.691 291.104 178.077 288.362C178.102 288.19 178.127 288.013 178.152 287.836C176.435 285.469 173.587 285.304 171.195 285.517C171.336 288.111 171.617 292.933 171.889 295.767C171.948 296.398 172.009 296.931 172.068 297.318Z" fill="#E6A586"/>
<path fill-rule="evenodd" clip-rule="evenodd" d="M149.568 179.835C145.208 181.046 142.975 179.813 141.213 181.409C138.719 199.06 143.401 224.308 143.746 238.647C144.093 252.983 139.243 259.54 139.671 260.885C140.102 262.229 142.324 262.436 142.603 263.408C143.444 266.726 139.22 276.788 139.472 278.976C139.723 281.162 141.807 283.311 142.424 283.967C143.041 284.62 141.769 285.817 142.873 286.472C143.369 286.767 145.827 286.431 148.548 286.137C151.462 285.821 154.679 285.552 156.119 286.152C157.325 260.776 165.875 195.551 166.692 176.743C165.696 173.931 151.956 179.173 149.568 179.835Z" fill="#353B75"/>
<path fill-rule="evenodd" clip-rule="evenodd" d="M139.648 260.742C139.651 260.794 139.66 260.84 139.673 260.883C139.66 260.842 139.651 260.794 139.648 260.742ZM168.025 233.219C169.696 249.342 163.599 261.899 163.692 263.318C163.785 264.737 165.528 263.86 165.599 267.077C165.639 268.98 164.032 271.635 163.782 273.383C163.633 274.439 165.428 273.873 165.238 274.972C164.565 278.863 163.549 283.942 163.884 284.357C164.156 284.695 165.147 284.33 165.871 284.699C166.628 285.085 166.435 285.642 167.281 285.871C168.743 286.266 175.162 283.711 178.153 287.835C180.311 272.48 185.082 237.565 184.617 231.937C184.019 224.686 179.683 187.721 179.069 183.971C165.007 174.646 161.803 182.173 154.745 179.743C150.734 198.131 166.354 217.095 168.025 233.219Z" fill="#40488C"/>
<path fill-rule="evenodd" clip-rule="evenodd" d="M166.521 100.136C166.367 100.501 165.968 101.821 164.791 102.685C164.202 101.987 163.902 101.111 163.8 100.241C163.209 101.844 163.646 103.438 163.478 104.54C163.417 105.107 163.129 105.535 162.732 105.864V107.979C164.578 107.723 169.675 104.771 167.156 96.6401C167.104 97.894 166.95 99.2136 166.537 100.102C166.533 100.114 166.528 100.125 166.521 100.136Z" fill="#E09B7B"/>
<path fill-rule="evenodd" clip-rule="evenodd" d="M137.796 186.329C151.915 177.727 157.819 183.089 166.657 182.81C171.407 182.661 175.516 181.615 179.067 183.969C177.69 180.556 176.051 156.756 175.992 140.546C176.595 131.663 175.434 115.61 173.743 112.61C168.961 111.558 162.594 111.236 157.542 111.386C144.886 111.76 141.272 114.088 139.215 128.196C136.22 148.738 137.864 182.105 137.796 186.329Z" fill="#EF7357"/>
<path fill-rule="evenodd" clip-rule="evenodd" d="M176.565 159.38C176.298 153.723 176.01 145.577 175.992 140.545C174.432 135.369 171.307 127.583 170.57 125.538C168.983 135.253 172.425 152.279 176.565 159.38Z" fill="#D65F45"/>
<path fill-rule="evenodd" clip-rule="evenodd" d="M198.549 119.085C198.757 118.419 199.442 117.398 199.347 116.884C199.127 115.68 199.349 109.798 200.775 109.735C201.394 109.707 201.678 110.787 201.678 110.787C202.061 109.249 204.086 106.665 205.927 107.878C207.768 109.091 206.868 115.385 202.002 120.278L198.549 119.085Z" fill="#F7B290"/>
<path fill-rule="evenodd" clip-rule="evenodd" d="M202.708 119.988L198.028 117.451C191.462 126.225 183.58 135.011 176.193 142.977C173.062 148.13 175.914 154.25 182.011 150.284C187.494 144.287 195.593 134.302 202.708 119.988Z" fill="#EF7357"/>
<path fill-rule="evenodd" clip-rule="evenodd" d="M172.765 142.101C174.913 155.452 185.197 157.009 181.892 134.419C180.645 125.892 178.529 116.609 173.745 112.612C167.648 113.233 171.99 137.426 172.765 142.101Z" fill="#EF7357"/>
<path fill-rule="evenodd" clip-rule="evenodd" d="M178.3 76.2083H142.355V80.6546C142.355 80.836 142.251 80.9902 142.085 81.0605C141.917 81.1308 141.736 81.0945 141.607 80.9652L136.85 76.2083H131.181C130.245 76.2083 129.479 75.4419 129.479 74.5055V56.133C129.479 55.1965 130.245 54.4302 131.181 54.4302H178.297C179.234 54.4302 180 55.1965 180 56.133V74.5055C180 75.4419 179.234 76.2083 178.3 76.2083Z" fill="#C9B5FF"/>
<path fill-rule="evenodd" clip-rule="evenodd" d="M133.858 62.6178H175.099C175.541 62.6178 175.904 62.9806 175.904 63.4228C175.904 63.8649 175.541 64.2277 175.099 64.2277H133.858C133.416 64.2277 133.053 63.8649 133.053 63.4228C133.053 62.9806 133.416 62.6178 133.858 62.6178ZM133.858 66.4157H175.099C175.541 66.4157 175.904 66.7785 175.904 67.2206C175.904 67.6627 175.541 68.0255 175.099 68.0255H133.858C133.416 68.0255 133.053 67.6627 133.053 67.2206C133.053 66.7762 133.416 66.4157 133.858 66.4157ZM133.858 70.2113H156.495C156.937 70.2113 157.3 70.5741 157.3 71.0162C157.3 71.4583 156.937 71.8211 156.495 71.8211H133.858C133.416 71.8211 133.053 71.4583 133.053 71.0162C133.053 70.5741 133.416 70.2113 133.858 70.2113ZM133.858 58.8223H175.099C175.541 58.8223 175.904 59.185 175.904 59.6272C175.904 60.0693 175.541 60.4321 175.099 60.4321H133.858C133.416 60.4321 133.053 60.0693 133.053 59.6272C133.053 59.1828 133.416 58.8223 133.858 58.8223Z" fill="#B39CF0"/>
<path d="M393.942 189.822H314.84V253.941H393.942V189.822Z" fill="url(#paint0_linear)"/>
<path fill-rule="evenodd" clip-rule="evenodd" d="M326.628 217.89C326.667 219.058 327.966 222.731 329.472 222.919C330.979 223.107 336.251 218.738 336.478 217.985C336.475 217.897 336.473 217.799 336.473 217.695C338.666 218.208 346.602 220.591 350.896 222.289C348.549 246.602 342.672 258.902 352.751 284.528C345.976 286.177 316.876 292.271 311.822 288.48C324.393 252.18 311.299 238.721 314.777 220.672C317.391 218.307 324.116 217.754 326.676 217.375L326.628 217.89Z" fill="#3B87FF"/>
<path fill-rule="evenodd" clip-rule="evenodd" d="M290.693 248.079C292.342 249.728 298.953 257.675 308.785 248.898C318.616 240.121 306.914 233.915 306.914 233.915L300.008 242.202L295.84 239.858L290.693 248.079Z" fill="#F7B290"/>
<path fill-rule="evenodd" clip-rule="evenodd" d="M314.773 220.669C312.324 222.93 303.867 233.337 301.869 236.99C304.016 239.588 311.163 245.722 312.406 246.588C315.306 243.763 318.852 238.579 320.244 235.942L314.773 220.669Z" fill="#3B87FF"/>
<path fill-rule="evenodd" clip-rule="evenodd" d="M263.1 219.574C266.816 227.494 281.656 239.366 289.071 246.614C298.938 256.262 301.366 245.782 299.8 243.841C298.371 242.129 296.582 240.318 295.363 239.298C283.618 229.484 265.961 219.268 265.329 217.628C266.889 211.919 263.635 210.631 263.814 214.808C262.987 211.785 259.2 210.082 257.765 210.64C256.652 211.073 256.525 213.415 263.1 219.574Z" fill="#F7B290"/>
<path fill-rule="evenodd" clip-rule="evenodd" d="M307.032 269.715C309.363 268.984 338.186 260.446 342.21 258.922C343.079 257.754 343.503 249.939 343.94 246.975C347.205 247.329 353.055 247.791 355.774 247.642C355.044 252.975 352.264 265.373 350.185 267.275C342.63 274.186 317.523 272.884 307.227 273.889C305.851 274.902 299.012 278.918 294.301 272.891C292.453 270.005 301.896 268.511 304.078 270.057C301.96 268.089 301.878 266.395 302.606 265.674C303.259 265.259 304.78 266.366 307.032 269.715Z" fill="#F7B290"/>
<path fill-rule="evenodd" clip-rule="evenodd" d="M349.385 301.813C350.759 301.917 353.765 303.887 355.196 305.468C356.627 307.048 361.356 298.387 361.356 298.387L360.914 297.607C359.608 296.369 353.595 294.306 351.818 293.63L349.385 301.813Z" fill="#F7BCAA"/>
<path fill-rule="evenodd" clip-rule="evenodd" d="M364.352 295.473C364.445 295.879 363.735 299.269 362.613 301.663C361.491 304.057 358.958 307.585 358.151 307.982C357.344 308.379 354.079 305.227 353.879 304.824C353.68 304.42 356.033 296.48 357.441 295.432C358.849 294.382 364.25 294.747 364.352 295.473Z" fill="#3A438C"/>
<path fill-rule="evenodd" clip-rule="evenodd" d="M281.076 284.131C303.296 300.964 308.452 302.216 322.41 302.597C336.366 302.98 353.68 294.547 367.298 285.38L363.327 279.594L342.932 277.683L318.968 284.82L297.045 283.163L281.076 284.131Z" fill="#252E73"/>
<path fill-rule="evenodd" clip-rule="evenodd" d="M353.881 293.215L348.959 304.029C340.483 302.5 321.775 299.682 301.575 293.789C294.649 291.769 270.016 283.06 277.124 271.687C282.06 263.787 306.459 270.36 353.881 293.215Z" fill="#3A438C"/>
<path fill-rule="evenodd" clip-rule="evenodd" d="M302.851 293.216L295.557 293.089C294.178 293.4 288.226 296.119 283.539 297.536C282.351 300.125 283.789 303.297 285.371 303.299C286.954 303.302 301.579 299.483 301.579 299.483L302.851 293.216Z" fill="#E5AC8E"/>
<path fill-rule="evenodd" clip-rule="evenodd" d="M276.32 293.917C277.692 298.69 279.982 306.659 279.982 306.659C280.873 306.6 283.769 305.61 284.73 304.945C285.927 304.118 286.918 303.281 286.764 302.687C286.455 301.483 284.453 302.816 284.061 301.061C283.669 299.306 285.249 299.515 284.66 297.198C284.555 296.785 281.83 295.057 279.413 293.969C278.522 293.565 277.649 293.486 276.32 293.917Z" fill="#343C7D"/>
<path fill-rule="evenodd" clip-rule="evenodd" d="M276.32 293.917C277.692 298.689 279.982 306.659 279.982 306.659C280.315 306.637 280.93 306.485 281.619 306.267L277.576 293.645C277.2 293.676 276.79 293.765 276.32 293.917Z" fill="#343C7D"/>
<path fill-rule="evenodd" clip-rule="evenodd" d="M288.037 295.164L292.844 304.842C301.206 303.479 331.199 299.028 350.272 293.729C357.713 291.661 381.51 280.535 374.159 269.906C368.86 262.244 335.836 273.114 288.037 295.164Z" fill="#3F4A99"/>
<path fill-rule="evenodd" clip-rule="evenodd" d="M342.949 273.2H328.703V275.671H344.185V274.435C344.185 273.755 343.629 273.2 342.949 273.2Z" fill="#BAD4FF"/>
<path fill-rule="evenodd" clip-rule="evenodd" d="M330.593 275.669L320.792 247.631H276.199L285.795 275.669H330.593Z" fill="#BAD4FF"/>
<path fill-rule="evenodd" clip-rule="evenodd" d="M326.521 216.636C325.78 216.577 325.118 216.428 324.592 216.212C321.766 215.06 320.422 212.319 319.86 208.927C319.708 208.016 319.615 207.054 319.562 206.066C320.896 203.524 325.834 199.826 328.852 198.479C329.21 201.254 330.518 206.036 335.182 208.283C335.266 207.147 337.028 206.118 338.311 206.782C339.595 207.446 340.785 210.594 334.822 213.927L335.663 221.447C335.663 221.447 334.273 223.667 331.446 223.985C328.618 224.302 327.12 222.017 327.12 222.017L326.521 216.636Z" fill="#F7B290"/>
<path d="M336.951 212.975H324.594V224.652H336.951V212.975Z" fill="url(#paint1_linear)"/>
<path fill-rule="evenodd" clip-rule="evenodd" d="M356.986 229.808C358.397 235.184 356.689 247.369 355.445 251.342C355.361 251.348 355.272 251.353 355.179 251.36C351.595 251.557 344.842 251.131 341.221 250.414C341.237 247.396 341.051 242.091 341.924 237.39C342.214 236.019 343.625 222.272 348.248 221.834C351.572 221.517 355.576 224.43 356.986 229.808Z" fill="#3B87FF"/>
<path fill-rule="evenodd" clip-rule="evenodd" d="M301.102 257.543C303.149 257.543 304.809 259.203 304.809 261.251C304.809 263.298 303.149 264.958 301.102 264.958C299.054 264.958 297.395 263.298 297.395 261.251C297.395 259.203 299.054 257.543 301.102 257.543Z" fill="#FFE8A1"/>
<path fill-rule="evenodd" clip-rule="evenodd" d="M321.277 44.1301L319.248 37.6794C318.824 36.3281 317.851 35.3554 316.5 34.9314L310.049 32.9021C309.435 32.7093 309.031 32.1606 309.031 31.5167C309.031 30.8705 309.433 30.3241 310.049 30.1313L316.5 28.102C317.851 27.678 318.824 26.7053 319.248 25.354L321.277 18.9033C321.47 18.2888 322.019 17.8853 322.663 17.8853C323.307 17.8853 323.855 18.2866 324.048 18.9033L326.077 25.354C326.501 26.7053 327.474 27.678 328.825 28.102L335.276 30.1313C335.891 30.3241 336.294 30.8728 336.294 31.5167C336.294 32.1629 335.893 32.7093 335.276 32.9021L328.825 34.9314C327.474 35.3554 326.501 36.3281 326.077 37.6794L324.048 44.1301C323.855 44.7445 323.307 45.1481 322.663 45.1481C322.019 45.1481 321.47 44.7468 321.277 44.1301Z" fill="white"/>
<path fill-rule="evenodd" clip-rule="evenodd" d="M340.231 26.7895L338.962 22.7558C338.696 21.9101 338.089 21.3024 337.243 21.0372L333.209 19.7674C332.824 19.6473 332.572 19.3049 332.572 18.9013C332.572 18.4977 332.824 18.1553 333.209 18.0352L337.243 16.7654C338.089 16.5001 338.696 15.8925 338.962 15.0468L340.231 11.0131C340.352 10.6277 340.694 10.376 341.098 10.376C341.501 10.376 341.844 10.6277 341.964 11.0131L343.233 15.0468C343.499 15.8925 344.106 16.5001 344.952 16.7654L348.986 18.0352C349.371 18.1553 349.621 18.4977 349.621 18.9013C349.621 19.3049 349.369 19.6473 348.986 19.7674L344.952 21.0372C344.106 21.3024 343.499 21.9101 343.233 22.7558L341.964 26.7895C341.844 27.1749 341.501 27.4266 341.098 27.4266C340.694 27.4266 340.352 27.1727 340.231 26.7895Z" fill="white"/>
<path fill-rule="evenodd" clip-rule="evenodd" d="M391.775 278.844L390.498 289.013C390.412 290.514 390.446 294.643 390.519 299.851C392.818 301.826 396.48 301.288 396.947 299.672C397.414 298.055 398.815 281.537 398.815 281.537L391.775 278.844Z" fill="#FAA098"/>
<path fill-rule="evenodd" clip-rule="evenodd" d="M399.206 303.853C397.812 303.998 392.586 304.273 392.071 304.316C391.554 304.359 390.522 305.071 390.2 305.091C388.561 305.2 386.335 304.463 385.77 304.334C385.208 304.205 376.533 304.085 376.471 303.912C376.412 303.74 376.505 302.674 377.306 302.321C377.709 302.144 379.462 301.552 381.532 300.754C383.573 299.967 385.752 299.015 386.749 298.509C387.373 298.194 387.733 297.765 388.266 297.459H388.269C388.677 297.187 390.59 295.425 390.865 295.469C391.139 295.512 393.032 296.734 393.032 297.035C393.032 297.214 392.717 297.77 392.461 298.194C392.933 298.369 393.416 298.452 393.926 298.316C395.533 297.886 395.672 296.029 396.574 295.961C397.481 295.893 399.202 298.017 399.206 303.853Z" fill="#272D66"/>
<path fill-rule="evenodd" clip-rule="evenodd" d="M399.168 303.857L399.207 303.895C399.297 304.131 399.597 305.12 399.51 305.335C399.424 305.551 395.871 306.394 389.387 306.222C382.902 306.049 377.472 305.832 376.479 303.918C376.748 304.086 385.212 304.206 385.77 304.333C386.335 304.462 388.561 305.199 390.201 305.09C390.52 305.07 391.554 304.358 392.071 304.315C392.584 304.272 397.719 304.004 399.168 303.857Z" fill="#61B2C6"/>
<path fill-rule="evenodd" clip-rule="evenodd" d="M407.323 231.952L407.271 232.14C407.198 232.405 407.126 232.668 407.06 232.934C403.074 248.506 408.704 266.155 408.371 267.697C408.037 269.239 406.269 267.992 405.67 271.509C405.316 273.588 406.647 276.76 406.636 278.717C406.629 279.9 404.752 278.986 404.781 280.224C404.886 284.598 405.174 290.332 404.74 290.731C404.387 291.058 403.36 290.496 402.509 290.784C401.616 291.085 401.736 291.727 400.773 291.84C399.106 292.035 395.614 290.677 390.29 292.223C390.408 276.626 389.243 243.017 390.191 232.387H390.173C390.399 218.08 396.786 193.103 399.179 178.487C402.602 176.215 422.399 176.29 422.601 178.735C419.383 187.786 409.091 221.323 407.309 231.952H407.323Z" fill="#3B87FF"/>
<path fill-rule="evenodd" clip-rule="evenodd" d="M397.5 145.421C397.5 147.73 398.226 166.794 402.976 166.794C407.726 166.794 409.342 149.326 408.599 141.175C407.857 133.021 404.173 130.579 402.155 130.582C400.139 130.579 397.568 134.867 397.5 145.421Z" fill="#FAA098"/>
<path d="M411.137 115.536C411.137 115.536 407.635 114.547 402.246 117.208C391.326 122.597 395.746 146.717 395.746 146.717H411.137V115.536Z" fill="url(#paint2_linear)"/>
<path fill-rule="evenodd" clip-rule="evenodd" d="M369.973 151.723C376.7 158.04 403.584 170.365 407.831 163.652C411.33 152.179 378.058 154.365 371.614 148.528C370.816 141.388 368.558 143.431 368.642 146.025C364.93 143.216 363.316 143.746 362.357 145.032C361.491 146.197 360.513 149.574 369.973 151.723Z" fill="#FAA098"/>
<path fill-rule="evenodd" clip-rule="evenodd" d="M427.631 278.901L425.359 286.32C425.272 287.821 426.302 294.7 426.374 299.908C428.674 301.883 432.335 301.346 432.802 299.729C433.27 298.112 433.662 282.043 433.662 282.043L427.631 278.901Z" fill="#FAA098"/>
<path fill-rule="evenodd" clip-rule="evenodd" d="M420.551 306.222C425.834 306.222 434.65 306.222 434.65 306.222C434.852 305.295 434.691 302.043 434.292 300.867C433.797 299.4 433.233 298.143 432.582 298.123C431.262 298.084 432.036 300.522 430.126 300.406C428.217 300.291 428.895 298.737 426.354 298.658C425.9 298.645 423.336 300.921 421.515 303.073C420.842 303.871 420.504 304.739 420.551 306.222Z" fill="#272D66"/>
<path fill-rule="evenodd" clip-rule="evenodd" d="M420.551 306.223C425.834 306.223 434.65 306.223 434.65 306.223C434.724 305.876 434.749 305.203 434.731 304.437L420.642 304.861C420.565 305.255 420.535 305.702 420.551 306.223Z" fill="#61B2C6"/>
<path fill-rule="evenodd" clip-rule="evenodd" d="M425.073 291.409C423.291 253.939 415.494 212.972 416.657 176.113C420.375 174.562 424.509 172.1 431.005 173.905C435.836 175.247 439.247 177.367 441.201 179.136C442.849 198.071 438.335 235.475 438.097 248.087C437.859 260.698 441.348 265.67 441.047 267.248C440.745 268.826 439.043 268.996 438.734 270.076C437.802 273.751 440.856 280.301 440.575 282.723C440.296 285.147 438.396 287.528 437.714 288.253C437.031 288.979 438.439 290.303 437.217 291.028C435.995 291.754 429.259 292.536 425.073 291.409Z" fill="#3B87FF"/>
<path fill-rule="evenodd" clip-rule="evenodd" d="M402.908 119.193C401.425 120.132 403.35 145.066 399.061 179.161C401.518 179.546 439.322 180.526 441.535 179.471C441.816 169.815 439.372 121.25 438.318 118.651C434.373 116.157 427.942 113.582 424.716 113.421C417.306 113.049 411.61 113.681 402.908 119.193Z" fill="#FCC53A"/>
<path fill-rule="evenodd" clip-rule="evenodd" d="M415.114 112.588C408.655 111.429 410.788 101.061 411.292 98.0316C411.539 98.1223 411.763 98.1699 411.942 98.1767C412.981 98.2084 413.575 96.9614 414.588 97.0521C415.627 97.145 415.981 98.417 417.008 98.4601C417.937 98.5009 418.754 96.9251 419.606 97.5328C420.447 98.1336 419.64 100.498 420.434 101.705C420.71 101.997 421.966 103.047 421.991 104.215C422.016 105.382 421.309 108.013 421.864 108.239C422.42 108.466 423.25 103.353 424.581 104.131C425.871 104.884 425.939 109.105 423.35 109.321L423.306 111.019L423.241 113.597L423.211 114.722C422.935 115.864 421.728 117.823 419.418 117.769C417.11 117.715 415.536 116.397 415.355 115.989L415.164 113.364L415.114 112.588Z" fill="#FAA098"/>
<path fill-rule="evenodd" clip-rule="evenodd" d="M420.434 101.71C419.64 100.503 420.447 98.1386 419.606 97.5377C418.753 96.9301 417.937 98.5037 417.007 98.4651C415.98 98.422 415.627 97.15 414.588 97.0571C413.575 96.9664 412.981 98.2134 411.942 98.1817C411.763 98.1772 411.539 98.1295 411.291 98.0366C410.015 97.565 408.097 95.9256 408.251 92.8896C408.435 89.2641 410.162 88.3005 411.491 88.3231C414.28 88.373 415.511 91.0122 417.048 91.1687C418.32 91.1868 420.701 88.8923 423.173 89.7085C425.476 90.4681 425.188 93.0098 426.188 93.6787C427.188 94.3475 428.288 94.2977 428.687 95.2001C429.086 96.1048 428.065 97.1206 428.762 98.1205C429.455 99.1204 431.639 99.0388 431.784 100.746C431.931 102.474 430.179 103.059 429.836 104.163C429.503 105.233 430.41 106.133 429.993 106.977C429.576 107.82 428.131 107.553 427.741 108.437C427.521 108.943 427.861 113.244 423.311 111.026L423.354 109.328C425.945 109.113 425.875 104.889 424.585 104.138C423.252 103.36 422.422 108.473 421.869 108.247C421.313 108.02 422.023 105.39 421.996 104.222C421.966 103.05 420.71 102.002 420.434 101.71Z" fill="#3B87FF"/>
<path fill-rule="evenodd" clip-rule="evenodd" d="M415.234 114.274L415.168 113.367L415.111 112.589C415.263 112.616 415.422 112.639 415.585 112.655C416.465 112.748 419.528 112.687 420.131 110.029C420.322 111.308 419.057 114.278 415.234 114.274Z" fill="#E8A490"/>
<path fill-rule="evenodd" clip-rule="evenodd" d="M443.451 193.851C443.649 167.396 441.424 155.61 437.645 142.463C440.458 140.928 445.537 141.482 448.047 141.244C450.376 158.362 449.897 167.491 446.576 194.575C448.376 199.259 444.977 205.247 442.499 203.918C440.898 203.059 441.66 197.268 443.091 196.107C441.551 196.806 440.492 196.905 440.111 196.218C439.939 195.649 440.511 194.822 443.451 193.851Z" fill="#FAA098"/>
<path d="M438.217 118.42C432.012 114.188 429.695 117.842 429.695 117.842V146.037H448.927C448.927 146.037 447.313 124.625 438.217 118.42Z" fill="url(#paint3_linear)"/>
<path fill-rule="evenodd" clip-rule="evenodd" d="M61.9786 209.361C61.7314 208.103 60.1465 207.461 59.6205 209.404C59.0945 211.347 60.5909 212.76 60.3801 213.231C60.1692 213.703 58.8178 214.925 54.9928 214.526C53.4419 214.363 52.1767 214.079 51.2131 213.701C49.7982 213.143 49.0296 212.381 48.9616 211.499C48.8482 210.016 50 210.087 50.1361 209.402C50.2721 208.717 48.3766 206.819 48.7167 205.209C48.8686 204.488 49.7824 204.189 50.0953 203.572C50.4082 202.956 49.9071 199.956 50.3515 197.559C50.7868 195.21 52.3218 194.24 53.5031 193.984C55.478 193.555 57.4688 195.095 59.0264 195.29C61.1895 195.559 61.3664 193.7 63.865 193.941C66.3637 194.181 68.2864 196.516 68.9462 196.886C69.606 197.256 70.4835 196.564 70.8871 196.82C71.2907 197.076 72.1863 200.33 68.9711 202.314C68.5834 202.525 67.8964 202.554 67.1686 202.536C65.9782 202.507 64.6813 202.348 64.4228 202.654C64.0056 203.148 62.1962 211.615 64.5838 214.132C65.0146 214.111 66.6766 210.978 67.715 211.939C68.8464 212.642 65.5746 218.843 62.881 217.895C62.2529 217.673 61.8743 217.177 61.6589 216.526C60.9514 214.39 62.2257 210.619 61.9786 209.361Z" fill="#353B75"/>
<path fill-rule="evenodd" clip-rule="evenodd" d="M64.5786 214.133C62.1888 211.616 64.0004 203.147 64.4176 202.655C64.6761 202.349 65.973 202.508 67.1634 202.538C67.8504 204.293 68.2064 206.453 68.1383 208.877C68.1066 209.99 67.9683 211.02 67.7121 211.94C66.6714 210.979 65.0116 214.115 64.5786 214.133Z" fill="#E5AC8E"/>
<path fill-rule="evenodd" clip-rule="evenodd" d="M61.9768 209.362C62.224 210.62 60.952 214.391 61.6549 216.529L61.317 219.751C58.9 218.744 56.7392 218.295 54.7779 218.105C53.4288 217.973 52.0956 217.894 50.7715 217.88L51.2091 213.701C52.1727 214.08 53.4402 214.366 54.9888 214.527C58.8138 214.928 60.1652 213.704 60.3761 213.232C60.5869 212.76 59.0905 211.348 59.6165 209.405C60.1448 207.462 61.7274 208.103 61.9768 209.362Z" fill="#E5AC8E"/>
<path fill-rule="evenodd" clip-rule="evenodd" d="M150.02 302.99C150.154 303.38 151.05 304.745 143.728 307.053C142.595 306.93 141.089 306.949 140.917 307.051C140.745 307.153 140.824 307.992 140.824 307.992C139.962 308.425 137.423 309.522 136.958 308.785C135.976 307.23 135.908 304.556 136.629 303.373L136.865 303.269C136.976 303.591 137.831 304.488 138.722 304.094C139.613 303.699 140.382 302.443 140.468 301.704C141.055 301.7 144.615 303.631 146.683 303.26C148.746 302.888 149.381 302.003 150.02 302.99Z" fill="#1A4F61"/>
<path fill-rule="evenodd" clip-rule="evenodd" d="M140.545 301.814L139.396 296.352L134.271 297.875L136.605 303.394C137.133 304.258 137.743 304.469 138.75 304.154C139.838 303.816 140.425 302.793 140.545 301.814Z" fill="#E6A887"/>
<path fill-rule="evenodd" clip-rule="evenodd" d="M174.45 298.738C174.719 299.051 176.057 299.985 170.117 304.846C169.017 305.152 167.627 305.728 167.505 305.887C167.382 306.046 167.768 306.796 167.768 306.796C167.128 307.517 165.178 309.481 164.473 308.968C162.984 307.889 161.929 305.433 162.158 304.066L162.34 303.883C162.562 304.141 163.689 304.656 164.369 303.96C165.051 303.264 165.296 301.81 165.101 301.091C165.645 300.869 169.668 301.341 171.448 300.23C173.23 299.117 173.491 298.06 174.45 298.738Z" fill="#1A4F61"/>
<path fill-rule="evenodd" clip-rule="evenodd" d="M165.217 301.163L162.122 296.52L157.93 299.839L162.145 304.097C162.956 304.702 163.6 304.673 164.419 304.006C165.303 303.285 165.471 302.118 165.217 301.163Z" fill="#E6A887"/>
<path fill-rule="evenodd" clip-rule="evenodd" d="M16.2483 304.885C17.1643 305.801 18.6245 308.547 17.0668 308.846C15.5091 309.148 12.1761 308.327 11.2759 308.191C10.3735 308.055 0.156737 309.667 0.211154 308.928C0.265571 308.191 6.26277 304.761 10.2239 304.434L16.2483 304.885Z" fill="#E6A887"/>
<path fill-rule="evenodd" clip-rule="evenodd" d="M139.829 297.195L131.168 300.063C128.245 291.731 125.239 292.823 124.747 291.867C124.255 290.91 125.415 288.683 125.143 287.946C124.871 287.209 121.482 285.706 120.853 284.477C120.225 283.248 121.865 280.024 121.318 279.094C120.772 278.165 117.382 265.54 114.103 265.322C110.825 265.105 88.5751 304.854 64.9854 300.678C41.3957 296.501 54.823 274.777 54.823 274.777C63.566 266.034 85.8543 248.235 111.319 249.451C128.805 250.671 135.142 259.044 139.829 297.195Z" fill="#5AA6AD"/>
<path fill-rule="evenodd" clip-rule="evenodd" d="M91.5094 224.941C92.5002 220.164 98.4521 214.436 91.6477 211.99C89.242 212.119 88.3554 220.828 87.3691 225.061L91.5094 224.941Z" fill="#E6A887"/>
<path fill-rule="evenodd" clip-rule="evenodd" d="M43.4449 230.772C43.4449 230.772 41.0936 225.313 36.8196 228.977C32.5457 232.641 13.1642 286.851 10.1055 304.555L16.2795 305.101C19.0117 297.617 32.7361 273.338 36.3412 258.586L43.4449 230.772Z" fill="#B1CEF5"/>
<path fill-rule="evenodd" clip-rule="evenodd" d="M83.318 255.992C87.5171 252.131 91.6415 230.813 92.2106 223.619L87.2791 222.478C86.1816 224.981 77.3004 245.807 76.0352 250.534L83.318 255.992Z" fill="#B1CEF5"/>
<path fill-rule="evenodd" clip-rule="evenodd" d="M42.4615 294.314L37.2715 299.45C40.6589 304.64 48.0528 311.032 67.9241 309.3C88.2216 307.531 114.095 271.582 120.652 268.305C123.547 273.74 137.004 283.792 143.189 288.798C145.452 290.63 146.008 291.43 145.983 292.156C145.947 293.199 144.904 294.231 145.525 295.364C146.144 296.498 151.574 296.128 153.842 303.314C155.016 302.631 161.873 297.33 162.256 296.702C159.388 291.838 136.929 250.067 123.271 250.668C109.61 251.268 82.0317 270.171 71.6516 280.005L42.4615 294.314Z" fill="#71C0C7"/>
<path fill-rule="evenodd" clip-rule="evenodd" d="M52.1832 216.825C50.2491 216.797 48.6143 216.918 47.5305 217.192C44.3789 217.99 38.8692 225.284 36.8195 228.971C36.7718 229.057 36.7242 229.143 36.6789 229.227C35.1779 232.025 34.7992 253.642 34.0601 265.897C33.2869 278.733 34.5067 290.505 33.9535 301.291C41.4472 297.137 56.074 288.288 56.2123 288.183C58.7812 286.272 71.4014 282.447 72.0567 280.808C70.6554 274.55 68.8552 244.781 68.4017 237.118C67.9868 219.802 66.4381 217.505 52.1832 216.825Z" fill="#D1E5FF"/>
<path fill-rule="evenodd" clip-rule="evenodd" d="M64.8105 284.413C68.3839 283.007 71.7306 281.633 72.0593 280.81C70.6581 274.552 68.8601 244.784 68.4043 237.12L65.0169 233.438C65.3116 240.433 66.3524 270.709 64.8105 284.413Z" fill="#B1CEF5"/>
<path fill-rule="evenodd" clip-rule="evenodd" d="M91.6625 209.08H96.6303C97.1881 209.08 97.5191 209.538 97.365 210.095L94.5353 220.321C94.3811 220.879 93.7984 221.337 93.2383 221.337H88.2705C87.7128 221.337 87.3817 220.881 87.5359 220.321L90.3633 210.095C90.522 209.535 91.1047 209.08 91.6625 209.08Z" fill="#353B75"/>
<path fill-rule="evenodd" clip-rule="evenodd" d="M87.9085 217.187C88.2441 216.851 89.0422 216.244 89.2236 216.534C89.405 216.824 89.3052 219.624 88.4708 219.96C87.6364 220.295 86.7204 220.731 86.9472 219.733C87.1739 218.738 87.9085 217.187 87.9085 217.187Z" fill="#E6A887"/>
<path fill-rule="evenodd" clip-rule="evenodd" d="M94.1977 216.78C93.8848 216.016 92.4609 214.311 93.0323 213.975C93.6036 213.64 95.8597 215.363 96.0229 216.161C96.1862 216.959 94.7169 217.857 94.7169 217.857L94.1977 216.78Z" fill="#E6A887"/>
<path fill-rule="evenodd" clip-rule="evenodd" d="M94.3075 216.666C93.6251 216.902 92.3553 217.945 91.6706 219.19C91.2307 219.988 90.4326 221.89 92.3735 222.042C94.2237 222.187 96.7178 217.165 96.0103 216.118L94.3075 216.666Z" fill="#E6A887"/>
<path fill-rule="evenodd" clip-rule="evenodd" d="M63.3649 236.229C67.818 242.1 72.9445 249.494 76.5542 253.638C78.8352 256.259 81.5084 257.502 83.5853 255.788C86.0885 253.72 85.5534 249.514 84.0592 246.868C81.5356 243.102 76.9147 233.463 72.4707 226.679C72.2553 226.657 64.1902 214.188 59.8165 221.215C57.4198 225.058 62.5668 235.431 63.3649 236.229Z" fill="#D1E5FF"/>
<path d="M95.2439 187.849C94.9854 188.591 94.6499 189.18 94.2417 189.613C93.8336 190.046 93.3869 190.411 92.904 190.708C92.421 191.005 91.9154 191.257 91.3894 191.466C90.8633 191.674 90.3532 191.924 89.8589 192.218C87.7434 193.472 86.578 195.592 85.7413 197.866L81.3563 196.336C82.0206 194.021 83.4286 191.196 85.3944 189.74C85.8887 189.375 86.3898 189.083 86.8932 188.867C87.3965 188.652 87.8681 188.441 88.3057 188.239C88.7433 188.037 89.1265 187.822 89.4508 187.591C89.775 187.362 90.0108 187.04 90.1559 186.625C90.3532 186.058 90.326 185.521 90.0743 185.015C89.8226 184.509 89.3669 184.144 88.7116 183.915C88.1448 183.718 87.5643 183.779 86.9748 184.099C86.3853 184.421 85.9295 185.04 85.6098 185.956L80.9753 183.97C81.8664 181.979 83.1293 180.587 84.7641 179.798C86.3989 179.009 88.2105 178.961 90.1967 179.655C91.31 180.043 92.2464 180.541 93.0015 181.149C93.7565 181.757 94.3506 182.428 94.7791 183.165C95.2076 183.902 95.4593 184.67 95.5364 185.468C95.6135 186.267 95.5183 187.065 95.2439 187.849ZM79.7237 200.37C79.9527 199.714 80.3971 199.227 81.0615 198.907C81.7236 198.587 82.3834 198.542 83.0386 198.771C83.6939 199 84.1814 199.445 84.5011 200.109C84.8208 200.771 84.8661 201.431 84.6371 202.086C84.4081 202.741 83.9637 203.229 83.2994 203.548C82.6373 203.868 81.9775 203.914 81.3222 203.685C80.667 203.456 80.1795 203.011 79.8598 202.347C79.5424 201.685 79.497 201.025 79.7237 200.37Z" fill="#353B75"/>
<path fill-rule="evenodd" clip-rule="evenodd" d="M412.101 108.315C412.448 107.739 417.388 107.743 417.704 108.181C418.114 108.752 416.958 110.834 415.026 110.725C413.094 110.616 411.727 108.936 412.101 108.315Z" fill="white"/>
<path fill-rule="evenodd" clip-rule="evenodd" d="M328.33 212.622C327.983 212.046 323.042 212.051 322.727 212.489C322.317 213.06 323.473 215.141 325.405 215.033C327.337 214.924 328.704 213.246 328.33 212.622Z" fill="white"/>
<defs>
<linearGradient id="paint0_linear" x1="374.997" y1="246.665" x2="332.842" y2="195.964" gradientUnits="userSpaceOnUse">
<stop stop-color="#D18965"/>
<stop offset="1" stop-color="#DE936D"/>
</linearGradient>
<linearGradient id="paint1_linear" x1="331.352" y1="224" x2="330.236" y2="214.026" gradientUnits="userSpaceOnUse">
<stop stop-color="#E09A77"/>
<stop offset="0.7199" stop-color="#F0AA88"/>
<stop offset="1" stop-color="#F7B290"/>
</linearGradient>
<linearGradient id="paint2_linear" x1="393.37" y1="143.943" x2="408.743" y2="124.381" gradientUnits="userSpaceOnUse">
<stop stop-color="#D9E8FF"/>
<stop offset="1" stop-color="white"/>
</linearGradient>
<linearGradient id="paint3_linear" x1="450.317" y1="142.832" x2="432.831" y2="125.525" gradientUnits="userSpaceOnUse">
<stop stop-color="#D9E8FF"/>
<stop offset="1" stop-color="white"/>
</linearGradient>
</defs>
</svg>
