<svg width="110" height="109" viewBox="0 0 110 109" fill="none" xmlns="http://www.w3.org/2000/svg">
<circle cx="54.7517" cy="54.2966" r="54.2966" fill="#E6E5E5"/>
<path d="M64.9751 91.7922C62.7567 90.8289 61.29 88.6311 61.29 86.1713V79.0374H33.7094V86.1713C33.7094 88.6316 32.2421 90.8298 30.0228 91.7928L29.4346 99.8769H65.565L64.9751 91.7922Z" fill="#F6D190"/>
<path d="M33.709 79.0376C37.7116 81.5441 42.4284 83.0162 47.4994 83.0162C52.5704 83.0162 57.2872 81.5441 61.2898 79.0376V73.8228H33.709V79.0376Z" fill="#ECBD83"/>
<path d="M59.7575 11H39.8383C36.9855 11 34.6094 12.9579 33.9259 15.5967L19.9189 52.371H75.0802V26.3226C75.0802 17.86 68.2199 11 59.7575 11V11Z" fill="#966A5B"/>
<path d="M33.7092 15.5967H30.6447C24.7211 15.5967 19.9189 20.3988 19.9189 26.3224V52.3708H33.7093V15.5967H33.7092Z" fill="#785353"/>
<path d="M78.1376 53.6562C78.0076 51.1704 75.7764 49.3066 73.2873 49.3066H72.0151C69.4765 49.3066 67.4184 47.2485 67.4184 44.7099V37.0487C67.4184 33.6635 64.6744 30.9197 61.2894 30.9197H33.7086L28.2949 64.3448L70.4055 58.5001H73.5474C76.1681 58.5001 78.2766 56.3071 78.1376 53.6562Z" fill="#FFE09F"/>
<path d="M33.7092 56.9678V30.9194C30.3241 30.9194 27.5802 33.6635 27.5802 37.0484V44.7096C27.5802 47.2483 25.5221 49.3064 22.9835 49.3064H21.7114C19.2223 49.3064 16.9912 51.1702 16.861 53.656C16.722 56.3071 18.8306 58.5 21.4512 58.5H24.5931L31.7231 60.8841C32.4974 60.924 33.2758 60.9457 34.0553 60.9589C33.8283 59.6627 33.7092 58.3292 33.7092 56.9678Z" fill="#F6D190"/>
<path d="M38.3057 53.9034C37.4587 53.9034 36.7734 53.218 36.7734 52.3711V50.8389C36.7734 49.9919 37.4588 49.3066 38.3057 49.3066C39.1525 49.3066 39.8379 49.9921 39.8379 50.8389V52.3711C39.8379 53.218 39.1525 53.9034 38.3057 53.9034Z" fill="#6E4848"/>
<path d="M56.6934 53.9034C55.8464 53.9034 55.1611 53.218 55.1611 52.3711V50.8389C55.1611 49.9919 55.8465 49.3066 56.6934 49.3066C57.5404 49.3066 58.2256 49.9921 58.2256 50.8389V52.3711C58.2256 53.218 57.5404 53.9034 56.6934 53.9034Z" fill="#6E4848"/>
<path d="M33.7077 47.7742C33.0208 47.7742 32.3968 47.3103 32.2233 46.613C32.0168 45.7931 32.5167 44.9611 33.3381 44.7561L39.4671 43.2238C40.2855 43.0158 41.119 43.5172 41.324 44.3386C41.5305 45.1585 41.0307 45.9905 40.2093 46.1955L34.0803 47.7278C33.9561 47.7591 33.8305 47.7742 33.7077 47.7742Z" fill="#785353"/>
<path d="M61.2908 47.7742C61.1682 47.7742 61.0424 47.7591 60.9182 47.7278L54.7893 46.1955C53.9678 45.9905 53.468 45.1585 53.6745 44.3386C53.878 43.5172 54.7115 43.0143 55.5314 43.2238L61.6604 44.7561C62.4819 44.9611 62.9817 45.7931 62.7752 46.613C62.6015 47.3103 61.9775 47.7742 61.2908 47.7742Z" fill="#785353"/>
<path d="M68.8497 46.2452C68.0353 46.2979 67.4193 47.0104 67.4193 47.8267V57.0157C67.4193 57.8354 66.7547 58.5001 65.9349 58.5001H33.762C29.7804 68.7051 35.254 79.5132 47.4305 79.5132C48.9991 79.5132 50.6015 79.7938 52.0835 79.4928C58.9318 78.1027 64.6927 73.6615 67.8741 67.6586L69.6957 63.0966C70.1084 61.6182 70.3765 60.0805 70.4838 58.4999V47.7741C70.484 46.8943 69.7421 46.1875 68.8497 46.2452Z" fill="#FAF5DC"/>
<path d="M67.8737 67.6588C68.6418 66.2064 69.2497 64.7127 69.6954 63.0968H34.5409C34.1327 61.6185 33.8659 60.0815 33.7616 58.5001H29.0647C28.2449 58.5001 27.5803 57.8354 27.5803 57.0157V47.8267C27.5803 47.0106 26.9645 46.2979 26.1499 46.2452C25.2574 46.1875 24.5156 46.8941 24.5156 47.7741V58.5001C24.6231 60.0807 24.8912 61.6184 25.3036 63.0966L27.1279 67.6635C30.9986 74.9625 38.6834 79.9517 47.4995 79.9517C49.0698 79.9517 50.6017 79.793 52.0829 79.4928C47.586 78.577 43.5696 76.343 40.4456 73.2169C42.7001 73.6136 45.0662 73.8227 47.4997 73.8227C55.5335 73.8227 62.9441 71.5171 67.8737 67.6588ZM37.3169 69.3254C36.6754 68.3212 36.1112 67.2636 35.6293 66.1613H64.6832C60.3132 69.0395 54.1115 70.758 47.4997 70.758C43.9079 70.758 40.4383 70.2502 37.3169 69.3254Z" fill="#F5EBCD"/>
<path d="M25.3089 63.1219C25.8833 65.3305 27.128 67.6539 27.1319 67.6613C30.5647 70.3492 35.2625 72.3019 40.4454 73.2168C39.2729 72.04 38.2133 70.7329 37.3165 69.3253C34.6949 68.5479 32.3112 67.4747 30.317 66.1612H35.629C35.1981 65.1746 34.8313 64.1495 34.5406 63.0967H25.3027C25.3053 63.1052 25.3066 63.1134 25.3089 63.1219Z" fill="#F4DBB3"/>
<path d="M81.5052 96.9948L71.1875 93.7705L47.4997 103.31L23.8119 93.7705L13.4941 96.9948C10.9355 97.7943 9.19336 100.164 9.19336 102.845C9.19336 104.587 10.6061 106 12.3488 106H82.6508C84.3935 106 85.8062 104.587 85.8062 102.845C85.8062 100.164 84.0639 97.7943 81.5052 96.9948Z" fill="#1B54C0"/>
<path d="M71.1872 93.7703L65.5906 92.0214C65.3811 91.9559 65.1729 91.8781 64.9747 91.7922C60.7591 96.7384 54.5075 99.8709 47.4994 99.8709C40.4913 99.8709 34.2381 96.7391 30.0223 91.793C29.8242 91.8789 29.6177 91.9559 29.4082 92.0214L23.8115 93.7703C29.0911 101.164 37.722 106 47.4994 106C57.2768 106 65.9077 101.164 71.1872 93.7703Z" fill="#ECEAEC"/>
</svg>
